<svg xmlns="http://www.w3.org/2000/svg" viewBox="0 0 512 512">
  <rect width="512" height="512" rx="96" fill="#1d4ed8"/>
  <g fill="#ffffff">
    <path d="M168 96h176v40c0 71-34 126-88 126s-88-55-88-126V96z"/>
    <path d="M128 126h48v32h-28c4 48 26 79 61 92l-13 30c-45-16-73-57-78-122-1-17 7-32 10-32z"/>
    <path d="M336 126h48c3 0 11 15 10 32-5 65-33 106-78 122l-13-30c35-13 57-44 61-92h-28v-32z"/>
    <path d="M230 250h52v82h-52z"/>
    <path d="M190 332h132v36H190z"/>
    <path d="M160 368h192v48H160z"/>
  </g>
</svg>
